<?xml version="1.0" encoding="UTF-8" standalone="no"?>
<!-- Created with Inkscape (http://www.inkscape.org/) -->
<svg
   xmlns:dc="http://purl.org/dc/elements/1.1/"
   xmlns:cc="http://creativecommons.org/ns#"
   xmlns:rdf="http://www.w3.org/1999/02/22-rdf-syntax-ns#"
   xmlns:svg="http://www.w3.org/2000/svg"
   xmlns="http://www.w3.org/2000/svg"
   xmlns:sodipodi="http://sodipodi.sourceforge.net/DTD/sodipodi-0.dtd"
   xmlns:inkscape="http://www.inkscape.org/namespaces/inkscape"
   id="svg2"
   sodipodi:version="0.32"
   inkscape:version="0.46"
   width="579.82794"
   height="856.81744"
   version="1.0"
   sodipodi:docbase="F:\"
   sodipodi:docname="laurent_panda_point_d_interrogation.svg"
   inkscape:export-filename="F:\lhpandapointd'interrogation..png"
   inkscape:export-xdpi="104"
   inkscape:export-ydpi="104"
   inkscape:output_extension="org.inkscape.output.svg.inkscape">
  <metadata
     id="metadata7">
    <rdf:RDF>
      <cc:Work
         rdf:about="">
        <dc:format>image/svg+xml</dc:format>
        <dc:type
           rdf:resource="http://purl.org/dc/dcmitype/StillImage" />
      </cc:Work>
    </rdf:RDF>
  </metadata>
  <defs
     id="defs5">
    <inkscape:perspective
       sodipodi:type="inkscape:persp3d"
       inkscape:vp_x="0 : 247 : 1"
       inkscape:vp_y="0 : 1000 : 0"
       inkscape:vp_z="468 : 247 : 1"
       inkscape:persp3d-origin="234 : 164.66667 : 1"
       id="perspective19" />
  </defs>
  <sodipodi:namedview
     inkscape:window-height="712"
     inkscape:window-width="1024"
     inkscape:pageshadow="2"
     inkscape:pageopacity="0.0"
     guidetolerance="10.0"
     gridtolerance="10.0"
     objecttolerance="10.0"
     borderopacity="1.0"
     bordercolor="#666666"
     pagecolor="#ffffff"
     id="base"
     inkscape:zoom="0.76315789"
     inkscape:cx="194.19527"
     inkscape:cy="216.63749"
     inkscape:window-x="-4"
     inkscape:window-y="-4"
     inkscape:current-layer="svg2"
     showgrid="false" />
  <path
     style="fill:#000000"
     d="M 193.24398,384.66542 C 175.97793,385.19641 153.57133,401.06935 147.85609,418.54268 C 146.28851,423.33527 145.00489,428.69532 145.01935,430.43518 C 145.05037,434.16964 148.32442,443.25572 152.87494,452.36538 C 154.66743,455.95382 155.79651,459.11217 155.38437,459.40269 C 126.65703,479.65417 109.51971,500.7093 98.267637,529.61208 C 91.435797,547.16074 89.633617,562.85567 88.175377,616.95103 C 87.196097,653.27909 87.376237,659.72796 89.811957,665.55753 C 92.904047,672.95792 93.532477,681.5996 91.066677,683.12351 C 89.476197,684.10649 78.160187,675.50346 69.791097,666.92135 C 61.239397,658.15197 45.947447,634.32368 41.260007,622.46086 C 32.704517,600.80886 29.803937,585.74349 29.803937,563.43478 C 29.803937,552.112 30.503067,541.09149 31.385967,538.88604 C 32.268877,536.68058 34.319787,530.52856 35.913847,525.24786 C 37.507897,519.96715 40.502067,512.11155 42.569277,507.79098 C 47.569557,497.34014 64.628577,474.78688 71.482237,469.5495 C 77.902627,464.64323 78.574717,460.64972 73.009717,460.6574 C 67.769717,460.66463 45.397367,479.62407 33.786287,493.88002 C 28.715637,500.10571 21.130057,512.24248 16.929485,520.88364 C 10.037341,535.06175 7.8551466,542.13524 1.9274796,569.21737 C -1.7735224,586.1264 -0.061332362,614.77548 6.3462526,643.0818 C 7.6502956,648.84257 8.8464896,664.55376 9.0193376,677.99556 C 9.2421396,695.32198 10.007988,703.43084 11.692421,705.87201 C 12.9992,707.76586 14.092742,711.08254 14.092742,713.23663 C 14.092742,715.39074 15.195184,719.73949 16.547616,722.89247 C 17.900047,726.04546 21.578557,734.90498 24.730527,742.58601 C 34.787387,767.09352 47.193097,783.45775 60.844447,790.31967 C 72.053617,795.954 88.626607,798.32902 101.26804,796.10226 C 114.67972,793.73984 118.83403,790.44139 118.83403,782.13676 C 118.83403,776.75312 117.43685,771.14473 109.94193,745.96828 C 107.47321,737.6755 107.93528,729.49335 110.86932,729.49335 C 113.66871,729.49335 118.83403,736.00252 118.83403,739.53106 C 118.83403,740.77781 121.29941,747.09046 124.34385,753.55111 C 127.38828,760.01178 132.28789,770.38609 135.19985,776.62693 C 142.66914,792.63485 154.89173,812.6883 163.23996,822.66945 C 169.91628,830.65166 191.39702,846.45445 195.58974,846.45445 C 196.63475,846.45445 199.24581,847.52946 201.37234,848.85477 C 203.49885,850.18006 209.15763,851.74198 213.91947,852.34614 C 218.68132,852.95031 223.33356,854.23196 224.28449,855.18289 C 226.85863,857.75703 233.83443,857.33536 248.77868,853.60086 C 263.77323,849.85379 269.90983,846.48503 271.58172,841.21738 C 272.67718,837.7659 269.953,826.44375 267.16295,822.88766 C 265.47761,820.73959 259.71962,803.2468 256.85248,791.46528 C 253.51913,777.76791 252.50333,753.8262 254.83403,744.16804 C 258.79868,727.73906 261.97489,725.95074 295.14851,721.69231 C 311.70081,719.56754 318.4439,718.19573 341.40924,712.25468 C 368.63583,705.21123 400.9467,686.58181 418.49228,667.79419 C 433.90936,651.28574 438.03306,643.1139 448.98727,607.29519 C 450.34676,602.84985 451.39295,591.86127 451.38759,581.98272 C 451.37886,565.9353 450.91278,563.60968 445.82321,553.17886 C 435.35728,531.72942 415.53692,512.29969 400.16256,508.39106 C 394.75122,507.01535 380.67274,513.69076 373.59537,520.99274 C 368.69079,526.05298 368.18073,527.51943 368.95838,534.24906 C 369.44004,538.41701 371.50719,547.33081 373.54081,554.05171 C 382.83816,584.77821 386.4631,617.71246 381.77828,628.73442 C 377.24094,639.40936 352.81072,659.66583 344.4642,659.66583 C 342.68985,659.66583 340.30683,660.60459 339.17258,661.73884 C 337.39929,663.51212 328.23867,665.29114 310.8597,667.30322 C 302.22541,668.30285 297.69458,670.72888 292.09356,677.23182 C 284.06273,686.5558 279.35889,687.03825 262.90784,680.39588 C 250.37252,675.33453 248.4884,675.03078 241.19584,676.74084 C 223.79919,680.82025 224.53334,680.87095 218.93832,674.88605 C 216.04296,671.78895 211.86547,666.2414 209.66435,662.55713 C 204.43069,653.797 199.2998,649.1917 194.88056,649.1917 C 188.7551,649.1917 170.45409,638.98409 160.23956,629.88003 C 149.32859,620.15522 141.99372,608.50209 136.12725,591.584 C 130.46025,575.24124 130.48599,542.49869 136.1818,522.68388 C 140.43531,507.8866 151.79427,484.52298 159.80314,474.02283 C 164.51297,467.84794 169.86867,465.81186 172.07751,469.38584 C 174.46263,473.24505 183.14074,471.00546 191.49829,464.36699 C 196.18433,460.64483 206.68577,453.91866 214.84687,449.41953 C 223.00796,444.92041 230.38274,440.52691 231.26724,439.65459 C 234.79091,436.17945 232.54765,420.96297 226.73936,409.0505 C 220.36031,395.96744 212.12389,388.63272 200.22673,385.42916 C 198.03193,384.83816 195.71055,384.58957 193.24398,384.66542 z M 372.23155,409.9779 C 366.61761,410.16037 361.30707,411.2195 357.82962,413.0874 C 340.91773,422.17153 328.10724,447.9162 335.73576,457.49334 C 336.93592,459.00008 342.44962,463.0385 347.95557,466.49455 C 353.46151,469.95057 362.71188,477.61398 368.52196,483.515 L 379.05064,494.26189 L 388.1064,493.38905 C 396.28453,492.60325 397.95407,491.6526 405.23596,483.73321 C 413.65865,474.57319 420.83805,461.4964 420.83805,455.31123 C 420.83805,441.53788 406.31466,420.2107 392.36151,413.46927 C 387.75264,411.24251 381.11909,410.04746 374.63187,409.9779 C 373.82096,409.9692 373.03354,409.95183 372.23155,409.9779 z M 213.6467,538.0132 C 196.6996,538.63431 177.21256,556.86253 175.18702,579.20053 C 174.04427,591.80294 179.06321,604.01693 187.57049,609.20454 C 196.28184,614.51654 204.54886,613.54285 213.37394,606.20414 C 217.54531,602.73531 221.65877,598.61113 222.5388,597.03927 C 223.41884,595.46744 227.64986,590.07222 231.92188,585.03767 C 239.68216,575.89225 239.66783,575.87302 238.41365,565.8351 C 236.99746,554.50026 234.49355,548.7434 228.53961,543.30482 C 224.71651,539.81264 220.12808,538.16596 215.28329,538.0132 C 214.74258,537.99614 214.19338,537.99316 213.6467,538.0132 z M 318.38798,551.70594 C 310.64406,551.84559 303.95828,557.25997 297.49428,568.28998 C 291.60742,578.33514 292.52286,585.90847 302.02216,605.71316 C 309.80243,621.93389 311.50194,624.40197 317.7879,628.73442 C 323.42813,632.62181 329.33331,632.30277 337.86332,627.64337 C 348.33666,621.9224 352.71346,612.87242 352.70166,596.82106 C 352.68697,576.83339 344.86368,562.57079 329.6804,554.76089 C 325.63929,552.68225 321.90795,551.64247 318.38798,551.70594 z M 210.91907,558.41593 C 214.07576,558.41591 216.64711,562.01582 216.64711,566.43518 C 216.64711,570.85451 214.07576,574.45444 210.91907,574.45444 C 207.76239,574.45445 205.19103,570.85455 205.19103,566.43518 C 205.19103,562.0158 207.76237,558.41593 210.91907,558.41593 z M 321.87936,571.01761 C 325.03607,571.0176 327.6074,574.56295 327.6074,578.98231 C 327.60738,583.40165 325.03605,587.00157 321.87936,587.00157 C 318.72269,587.00159 316.15132,583.40168 316.15132,578.98231 C 316.15132,574.56293 318.72267,571.01761 321.87936,571.01761 z M 242.50511,638.88123 C 236.75394,639.04776 232.15529,639.91653 230.28529,641.60887 C 224.60462,646.74982 226.32462,650.49172 236.72252,655.41072 C 242.03735,657.92505 247.64407,661.87924 249.16054,664.19371 C 250.67702,666.50816 252.20867,668.39427 252.59737,668.39427 C 252.9861,668.39427 256.4324,666.43037 260.23475,664.03005 C 264.03711,661.62973 268.76097,659.66583 270.76343,659.66583 C 279.48905,659.66583 284.87278,650.84237 279.0009,646.13675 C 273.20923,641.49544 255.1577,638.5149 242.50511,638.88123 z M 231.92188,684.81465 C 232.39332,684.79854 232.91325,684.79756 233.44935,684.81465 C 236.3086,684.90581 240.06855,685.505 244.74177,686.56034 C 251.57806,688.10417 260.56195,689.34253 264.70808,689.34253 C 274.26427,689.34253 276.12219,692.20453 269.9997,697.47089 C 265.9535,700.95128 263.36289,701.56234 252.3246,701.56234 C 240.3462,701.56234 238.94562,701.17899 233.23114,696.16162 C 225.09107,689.01455 224.85032,685.05632 231.92188,684.81465 z"
     id="path2181" />
  <path
     style="font-size:282.63897705px;font-style:normal;font-variant:normal;font-weight:normal;font-stretch:normal;text-align:center;line-height:100%;writing-mode:lr-tb;text-anchor:middle;fill:#000000;fill-opacity:1;stroke:none;stroke-width:1px;stroke-linecap:butt;stroke-linejoin:miter;stroke-opacity:1;font-family:Sylfaen"
     d="M 417.28358,240.36526 L 442.78583,265.16872 L 423.5318,284.95066 L 398.02955,260.1472 L 417.28358,240.36526 M 453.17516,252.98701 L 429.18043,229.64976 L 440.85414,217.65599 C 445.95812,212.41195 451.32509,209.24289 456.95503,208.14879 C 462.58476,207.05471 471.3415,207.94058 483.22529,210.80644 L 501.27819,214.87157 C 508.73024,216.76276 514.69081,217.50642 519.15992,217.10253 C 523.71245,216.7801 527.22691,215.34682 529.70333,212.80269 C 534.20081,208.18172 535.07557,201.75534 532.32763,193.52355 C 529.66308,185.37326 523.80833,176.89946 514.76338,168.10215 C 508.14687,161.66715 500.18554,155.69271 490.87933,150.17882 C 481.65659,144.74652 471.29043,139.81905 459.78081,135.39643 L 474.03182,120.75468 C 484.78483,125.45216 494.88893,130.98386 504.34419,137.3498 C 513.8829,143.79734 522.96551,151.21607 531.59205,159.60601 C 547.00208,174.59401 556.9044,189.12698 561.29904,203.20496 C 565.77702,217.36441 563.99854,228.57185 555.96361,236.82733 C 552.12271,240.77331 546.95136,243.07136 540.44957,243.72153 C 533.99793,244.31971 524.83037,243.18589 512.94688,240.32005 L 495.37264,236.26565 C 489.06103,234.87747 484.38555,234.06976 481.3462,233.84253 C 478.44088,233.64478 476.02159,233.86911 474.08831,234.51551 C 472.52444,235.11709 470.8589,236.07452 469.09171,237.38781 C 467.32427,238.70105 465.12668,240.70763 462.49896,243.40756 L 453.17516,252.98701"
     id="text2194" />
  <path
     style="font-size:203.17034912px;font-style:normal;font-variant:normal;font-weight:normal;font-stretch:normal;text-align:center;line-height:100%;writing-mode:lr-tb;text-anchor:middle;fill:#000000;fill-opacity:1;stroke:none;stroke-width:1px;stroke-linecap:butt;stroke-linejoin:miter;stroke-opacity:1;font-family:Sylfaen"
     d="M 280.21913,304.58751 L 305.93689,314.47671 L 299.32698,331.6664 L 273.60922,321.7772 L 280.21913,304.58751 M 309.00217,304.23604 L 284.80469,294.93144 L 288.81227,284.50934 C 290.56444,279.95251 293.18681,276.66245 296.67941,274.63915 C 300.17186,272.61591 306.46477,271.12569 315.55815,270.16848 L 329.27619,268.5297 C 335.00972,267.98969 339.33997,267.06537 342.26696,265.75675 C 345.27816,264.48067 347.20887,262.73724 348.05909,260.52645 C 349.60301,256.51105 348.06498,252.19088 343.445,247.5659 C 338.90924,242.97352 332.08065,238.92355 322.95919,235.41599 C 316.28684,232.85039 308.84646,230.89565 300.63803,229.55177 C 292.51391,228.24051 283.77445,227.52115 274.41961,227.39368 L 279.31199,214.6706 C 288.23995,215.15182 297.00086,216.31964 305.59476,218.17404 C 314.27296,220.06109 322.96172,222.67713 331.66109,226.02216 C 347.20142,231.99798 358.81768,238.97649 366.50993,246.95773 C 374.28634,254.97157 376.79539,262.56528 374.03707,269.73888 C 372.71841,273.16783 369.94036,275.85425 365.70292,277.79815 C 361.48254,279.69699 354.82576,281.12498 345.73259,282.08213 L 332.34602,283.61532 C 327.56094,284.20944 324.08966,284.79081 321.93217,285.35942 C 319.87628,285.91543 318.29368,286.62748 317.18439,287.49558 C 316.31322,288.2482 315.49077,289.25255 314.71701,290.50862 C 313.94308,291.76472 313.10508,293.56581 312.20303,295.9119 L 309.00217,304.23604"
     id="text2198" />
  <path
     style="font-size:284.2961731px;font-style:normal;font-variant:normal;font-weight:normal;font-stretch:normal;text-align:center;line-height:100%;writing-mode:lr-tb;text-anchor:middle;fill:#000000;fill-opacity:1;stroke:none;stroke-width:1px;stroke-linecap:butt;stroke-linejoin:miter;stroke-opacity:1;font-family:Sylfaen"
     inkscape:transform-center-x="159.38154"
     inkscape:transform-center-y="132.05889"
     d="M 222.31321,237.14007 L 249.29351,226.95712 L 258.82243,260.18761 L 231.84213,270.37056 L 222.31321,237.14007 M 242.9813,208.02627 L 217.59589,217.60728 L 211.81851,197.45965 C 209.29244,188.65062 208.45706,180.94326 209.31237,174.33754 C 210.16762,167.73206 213.50705,159.17397 219.33066,148.66326 L 227.95351,132.50489 C 231.67841,125.97627 234.06071,120.24422 235.10041,115.30871 C 236.22861,110.34011 236.17999,105.71885 234.95454,101.44493 C 232.72857,93.682625 228.00386,88.506423 220.78039,85.916311 C 213.64545,83.293166 205.29332,83.78733 195.72398,87.398811 C 188.72415,90.040894 181.67469,94.393033 174.57558,100.45525 C 167.56508,106.4844 160.60032,114.04263 153.68128,123.12997 L 146.62838,98.534169 C 153.53171,90.419372 160.88627,83.53562 168.69207,77.882887 C 176.5865,72.197141 185.09687,67.631925 194.22322,64.187221 C 210.52656,58.034211 224.80882,57.331714 237.07005,62.079725 C 249.41977,66.794753 257.58298,76.086066 261.55969,89.953696 C 263.46039,96.582544 263.67874,103.50787 262.21474,110.7297 C 260.72556,117.86467 257.06923,126.68735 251.24572,137.19777 L 242.77615,152.86333 C 239.78713,158.53451 237.74424,162.88191 236.64746,165.90553 C 235.61417,168.80874 235.05576,171.48428 234.97223,173.93218 C 234.96577,175.96454 235.20481,178.33911 235.68936,181.0559 C 236.17379,183.77291 237.0663,187.39905 238.3669,191.93434 L 242.9813,208.02627"
     id="text2202" />
  <path
     style="font-size:232.94262695px;font-style:normal;font-variant:normal;font-weight:normal;font-stretch:normal;text-align:center;line-height:100%;writing-mode:lr-tb;text-anchor:middle;fill:#000000;fill-opacity:1;stroke:none;stroke-width:1px;stroke-linecap:butt;stroke-linejoin:miter;stroke-opacity:1;font-family:Sylfaen"
     d="M 454.19402,365.25127 L 472.03477,388.26918 L 453.2661,401.44401 L 435.42535,378.42611 L 454.19402,365.25127 M 482.36963,379.96404 L 465.58351,358.3068 L 476.96295,350.31891 C 481.93828,346.82635 486.84725,345.01454 491.68987,344.88346 C 496.53231,344.75236 503.70838,346.60155 513.21811,350.43104 L 527.70422,356.01964 C 533.65461,358.49567 538.51989,359.86598 542.30008,360.13057 C 546.13857,360.47072 549.2648,359.79359 551.67877,358.09922 C 556.06289,355.0216 557.67624,350.03733 556.51883,343.14637 C 555.4197,336.33098 551.70633,328.84129 545.37873,320.67731 C 540.74996,314.70552 534.93701,308.92311 527.93985,303.33004 C 521.00104,297.81264 513.03981,292.5461 504.05613,287.53043 L 517.94791,277.77898 C 526.26318,282.91369 533.92287,288.62532 540.927,294.91393 C 547.98943,301.27819 554.53813,308.35333 560.57307,316.13932 C 571.35352,330.04834 577.6064,342.87532 579.33172,354.62032 C 581.11528,366.44086 578.09085,375.10023 570.25844,380.59843 C 566.51439,383.22643 561.8883,384.37278 556.38016,384.0375 C 550.92097,383.66754 543.43665,381.56785 533.92716,377.73842 L 519.8385,372.22099 C 514.76935,370.29334 510.98389,369.04045 508.48214,368.46228 C 506.08801,367.92506 504.04088,367.78634 502.34071,368.04612 C 500.95458,368.31871 499.43475,368.86033 497.78123,369.67097 C 496.12752,370.48154 494.01991,371.78592 491.4584,373.5841 L 482.36963,379.96404"
     id="text2206" />
  <path
     style="font-size:220.9438324px;font-style:normal;font-variant:normal;font-weight:normal;font-stretch:normal;text-align:center;line-height:100%;writing-mode:lr-tb;text-anchor:middle;fill:#000000;fill-opacity:1;stroke:none;stroke-width:1px;stroke-linecap:butt;stroke-linejoin:miter;stroke-opacity:1;font-family:Sylfaen"
     d="M 147.03779,320.99869 L 171.78938,299.80539 L 183.76755,313.79465 L 159.01595,334.98795 L 147.03779,320.99869 M 164.12557,292.33564 L 140.83711,312.27613 L 133.57476,303.79445 C 130.39943,300.08608 128.92802,296.06415 129.16052,291.72864 C 129.393,287.3933 131.81525,280.51474 136.42728,271.09293 L 143.20382,256.79513 C 146.17083,250.88203 147.93162,246.19255 148.48619,242.7267 C 149.12197,239.19153 148.66962,236.52429 147.12916,234.72501 C 144.33108,231.45732 139.38506,231.11049 132.29107,233.68452 C 125.27834,236.18923 117.38254,241.19993 108.60365,248.71663 C 102.18206,254.21518 95.863578,260.73895 89.64817,268.28797 C 83.5141,275.7676 77.557881,284.11301 71.779495,293.3242 L 62.913768,282.96994 C 68.762689,274.33473 75.148711,266.16222 82.071849,258.4524 C 89.076333,250.67321 96.764787,243.19914 105.13723,236.03017 C 120.09386,223.22387 133.60831,214.73861 145.68065,210.57439 C 157.8342,206.34089 166.41036,207.14308 171.40918,212.98096 C 173.79846,215.77162 174.61462,219.68643 173.85766,224.72537 C 173.06914,229.7279 170.3689,236.93994 165.75695,246.36151 L 159.0828,260.28528 C 156.73993,265.28232 155.18008,268.97246 154.40325,271.35573 C 153.67618,273.63289 153.38051,275.50878 153.51623,276.98341 C 153.68869,278.17217 154.12459,279.42166 154.82394,280.73189 C 155.52319,282.04229 156.69025,283.6521 158.32511,285.56131 L 164.12557,292.33564"
     id="text2210" />
  <path
     style="font-size:258.88748169px;font-style:normal;font-variant:normal;font-weight:normal;font-stretch:normal;text-align:center;line-height:100%;writing-mode:lr-tb;text-anchor:middle;fill:#000000;fill-opacity:1;stroke:none;stroke-width:1px;stroke-linecap:butt;stroke-linejoin:miter;stroke-opacity:1;font-family:Sylfaen"
     d="M 351.41261,126.02912 L 383.99786,126.02912 L 383.99786,151.31458 L 351.41261,151.31458 L 351.41261,126.02912 M 383.03476,111.3954 L 352.37572,111.3954 L 352.37572,96.064848 C 352.37566,89.361941 353.87384,83.853561 356.87024,79.539707 C 359.86652,75.225987 366.18023,70.215352 375.81142,64.507795 L 390.25808,55.647929 C 396.35768,52.130626 400.74517,48.812327 403.42059,45.693023 C 406.20281,42.573925 407.59396,39.38836 407.59408,36.136314 C 407.59396,30.229855 404.06255,25.451504 396.99986,21.801246 C 390.04395,18.151247 380.7874,16.326185 369.23016,16.326051 C 360.77612,16.326185 351.73359,17.487589 342.10255,19.810263 C 332.5784,22.133205 322.62628,25.517868 312.24612,29.964267 L 312.24612,11.249045 C 322.30524,7.4663272 332.4714,4.6457735 342.74462,2.7873759 C 353.12476,0.92927755 363.82596,0.000157502 374.84831,-5.6843419e-14 C 394.53847,0.000157502 410.32277,3.2188999 422.20126,9.6562586 C 434.18649,16.093901 440.17917,24.588748 440.17932,35.140822 C 440.17917,40.184753 438.25295,44.996282 434.40065,49.57544 C 430.54807,54.088423 423.8063,59.198607 414.17534,64.905991 L 400.0497,73.46721 C 395.02003,76.586489 391.43512,79.042032 389.29497,80.833838 C 387.26164,82.55943 385.81697,84.251757 384.96097,85.910844 C 384.31881,87.304595 383.83725,88.99693 383.5163,90.987842 C 383.19518,92.978888 383.03466,95.699893 383.03476,99.150872 L 383.03476,111.3954"
     id="text2214" />
</svg>
